<svg width="40" height="40" viewBox="0 0 40 40" fill="none" xmlns="http://www.w3.org/2000/svg">
<rect width="40" height="40" rx="6" fill="white" fill-opacity="0.08"/>
<path d="M12.3 18.7C13.5134 18.7 14.5 17.7134 14.5 16.5C14.5 15.2865 13.5134 14.3 12.3 14.3C11.0866 14.3 10.1 15.2865 10.1 16.5C10.1 17.7134 11.0866 18.7 12.3 18.7ZM27.7 18.7C28.9134 18.7 29.9 17.7134 29.9 16.5C29.9 15.2865 28.9134 14.3 27.7 14.3C26.4866 14.3 25.5 15.2865 25.5 16.5C25.5 17.7134 26.4866 18.7 27.7 18.7ZM28.8 19.8H26.6C25.995 19.8 25.4484 20.044 25.0497 20.4394C26.435 21.199 27.4181 22.5706 27.6313 24.2H29.9C30.5084 24.2 31 23.7084 31 23.1V22C31 20.7865 30.0134 19.8 28.8 19.8ZM20 19.8C22.1278 19.8 23.85 18.0778 23.85 15.95C23.85 13.8222 22.1278 12.1 20 12.1C17.8722 12.1 16.15 13.8222 16.15 15.95C16.15 18.0778 17.8722 19.8 20 19.8ZM22.64 20.9H22.3547C21.6397 21.2437 20.8456 21.45 20 21.45C19.1544 21.45 18.3638 21.2437 17.6453 20.9H17.36C15.1737 20.9 13.4 22.6737 13.4 24.86V25.85C13.4 26.7609 14.1391 27.5 15.05 27.5H24.95C25.8609 27.5 26.6 26.7609 26.6 25.85V24.86C26.6 22.6737 24.8263 20.9 22.64 20.9ZM14.9503 20.4394C14.5516 20.044 14.005 19.8 13.4 19.8H11.2C9.98656 19.8 9 20.7865 9 22V23.1C9 23.7084 9.49156 24.2 10.1 24.2H12.3653C12.5819 22.5706 13.565 21.199 14.9503 20.4394Z" fill="white" fill-opacity="0.38"/>
</svg>
