<svg width="40" height="40" viewBox="0 0 40 40" fill="none" xmlns="http://www.w3.org/2000/svg">
<rect width="40" height="40" rx="6" fill="white" fill-opacity="0.08"/>
<path d="M23 21V13C23 12.2044 22.6839 11.4413 22.1213 10.8787C21.5587 10.3161 20.7956 10 20 10C19.2044 10 18.4413 10.3161 17.8787 10.8787C17.3161 11.4413 17 12.2044 17 13V21C16.1605 21.6296 15.5403 22.5075 15.2274 23.5092C14.9145 24.5108 14.9247 25.5856 15.2566 26.5811C15.5884 27.5767 16.2251 28.4426 17.0764 29.0562C17.9278 29.6698 18.9506 30 20 30C21.0494 30 22.0722 29.6698 22.9236 29.0562C23.7749 28.4426 24.4116 27.5767 24.7434 26.5811C25.0753 25.5856 25.0855 24.5108 24.7726 23.5092C24.4597 22.5075 23.8395 21.6296 23 21ZM20 12C20.2652 12 20.5196 12.1054 20.7071 12.2929C20.8946 12.4804 21 12.7348 21 13V16H19V13C19 12.7348 19.1054 12.4804 19.2929 12.2929C19.4804 12.1054 19.7348 12 20 12Z" fill="white" fill-opacity="0.38"/>
</svg>
