<svg width="40" height="40" viewBox="0 0 40 40" fill="none" xmlns="http://www.w3.org/2000/svg">
<rect width="40" height="40" rx="6" fill="white" fill-opacity="0.08"/>
<path d="M19.9999 10.8333C18.7961 10.8333 17.6041 11.0704 16.492 11.5311C15.3798 11.9918 14.3693 12.667 13.5181 13.5182C11.799 15.2373 10.8333 17.5688 10.8333 20C10.8333 22.4311 11.799 24.7627 13.5181 26.4818C14.3693 27.333 15.3798 28.0082 16.492 28.4689C17.6041 28.9295 18.7961 29.1666 19.9999 29.1666C22.4311 29.1666 24.7626 28.2009 26.4817 26.4818C28.2008 24.7627 29.1666 22.4311 29.1666 20C29.1666 18.7962 28.9295 17.6042 28.4688 16.492C28.0081 15.3799 27.3329 14.3694 26.4817 13.5182C25.6305 12.667 24.62 11.9918 23.5079 11.5311C22.3957 11.0704 21.2037 10.8333 19.9999 10.8333ZM23.8499 23.85L19.0833 20.9166V15.4166H20.4583V20.1833L24.5833 22.6583L23.8499 23.85Z" fill="white" fill-opacity="0.38"/>
</svg>
