<svg width="40" height="40" viewBox="0 0 40 40" fill="none" xmlns="http://www.w3.org/2000/svg">
<rect width="40" height="40" rx="6" fill="white" fill-opacity="0.08"/>
<path d="M20.0194 12.2234C23.2239 12.2234 25.0413 14.2683 25.3052 16.7396H25.3858C27.4476 16.7396 29.1194 18.3477 29.1194 20.3315C29.1194 22.314 27.4476 23.9234 25.3858 23.9234L24.455 23.9221L24.442 23.9546L22.5141 27.4698C22.4366 27.6126 22.3085 27.7212 22.1549 27.7742C22.0014 27.8272 21.8335 27.8208 21.6844 27.7562C21.5354 27.6916 21.4159 27.5735 21.3495 27.4252C21.2832 27.2769 21.2748 27.1092 21.3259 26.955L21.3727 26.8471L22.9782 23.9221H20.5693L20.5563 23.9546L18.6284 27.4698C18.5509 27.6126 18.4228 27.7212 18.2692 27.7742C18.1157 27.8272 17.9478 27.8208 17.7987 27.7562C17.6497 27.6916 17.5302 27.5735 17.4638 27.4252C17.3975 27.2769 17.3891 27.1092 17.4402 26.955L17.487 26.8471L19.0925 23.9221H16.6615L14.7284 27.4698C14.6555 27.6034 14.538 27.7071 14.3964 27.7629C14.2548 27.8188 14.0981 27.8231 13.9536 27.7753L13.847 27.7285C13.7135 27.6558 13.6097 27.5386 13.5536 27.3973C13.4976 27.2559 13.4928 27.0994 13.5402 26.955L13.587 26.8471L15.1795 23.9221H14.653C12.5912 23.9221 10.9194 22.3153 10.9194 20.3315C10.9194 18.4205 12.469 16.8592 14.4255 16.7461L14.7336 16.7396C15.0001 14.2527 16.8162 12.2234 20.0194 12.2234Z" fill="white" fill-opacity="0.38"/>
</svg>
