<svg width="40" height="40" viewBox="0 0 40 40" fill="none" xmlns="http://www.w3.org/2000/svg">
<rect width="40" height="40" rx="6" fill="white" fill-opacity="0.08"/>
<path d="M11.0625 17.9375C10.789 17.9375 10.5267 17.8289 10.3333 17.6355C10.1399 17.4421 10.0312 17.1798 10.0312 16.9062C10.0312 16.6327 10.1399 16.3704 10.3333 16.177C10.5267 15.9836 10.789 15.875 11.0625 15.875H19.3125C19.586 15.875 19.8483 15.7664 20.0417 15.573C20.2351 15.3796 20.3438 15.1173 20.3438 14.8438C20.3438 14.5702 20.2351 14.3079 20.0417 14.1145C19.8483 13.9211 19.586 13.8125 19.3125 13.8125C18.9804 13.8222 18.6648 13.9591 18.4308 14.1949C18.2351 14.3733 17.9784 14.4696 17.7137 14.4638C17.4491 14.4581 17.1967 14.3508 17.009 14.1642C16.8212 13.9775 16.7125 13.7258 16.7052 13.4612C16.6979 13.1966 16.7926 12.9393 16.9698 12.7426C17.5917 12.1193 18.4322 11.7632 19.3125 11.75C20.133 11.75 20.9199 12.0759 21.5001 12.6561C22.0803 13.2363 22.4062 14.0232 22.4062 14.8438C22.4062 15.6643 22.0803 16.4512 21.5001 17.0314C20.9199 17.6116 20.133 17.9375 19.3125 17.9375H11.0625ZM26.875 14.8438C25.9935 14.8561 25.1516 15.2122 24.5289 15.8363C24.3517 16.033 24.2569 16.2903 24.2642 16.555C24.2715 16.8196 24.3803 17.0713 24.568 17.2579C24.7558 17.4446 25.0081 17.5519 25.2728 17.5576C25.5375 17.5633 25.7942 17.467 25.9898 17.2887C26.2247 17.052 26.5417 16.915 26.875 16.9062C27.1485 16.9062 27.4108 17.0149 27.6042 17.2083C27.7976 17.4017 27.9062 17.664 27.9062 17.9375C27.9062 18.211 27.7976 18.4733 27.6042 18.6667C27.4108 18.8601 27.1485 18.9688 26.875 18.9688H11.75C11.4765 18.9688 11.2142 19.0774 11.0208 19.2708C10.8274 19.4642 10.7188 19.7265 10.7188 20C10.7188 20.2735 10.8274 20.5358 11.0208 20.7292C11.2142 20.9226 11.4765 21.0312 11.75 21.0312H26.875C27.6955 21.0312 28.4824 20.7053 29.0626 20.1251C29.6428 19.5449 29.9688 18.758 29.9688 17.9375C29.9688 17.117 29.6428 16.3301 29.0626 15.7499C28.4824 15.1697 27.6955 14.8438 26.875 14.8438ZM22.0625 22.0625H12.4375C12.164 22.0625 11.9017 22.1712 11.7083 22.3645C11.5149 22.5579 11.4062 22.8202 11.4062 23.0938C11.4062 23.3673 11.5149 23.6296 11.7083 23.823C11.9017 24.0163 12.164 24.125 12.4375 24.125H22.0625C22.336 24.125 22.5983 24.2337 22.7917 24.427C22.9851 24.6204 23.0938 24.8827 23.0938 25.1562C23.0938 25.4298 22.9851 25.6921 22.7917 25.8855C22.5983 26.0788 22.336 26.1875 22.0625 26.1875C21.7302 26.1777 21.4143 26.0408 21.1799 25.8051C21.0864 25.7013 20.9728 25.6176 20.846 25.559C20.7192 25.5005 20.5818 25.4683 20.4421 25.4645C20.3025 25.4606 20.1635 25.4852 20.0337 25.5367C19.9038 25.5882 19.7858 25.6655 19.6867 25.764C19.5876 25.8625 19.5096 25.98 19.4573 26.1096C19.4051 26.2391 19.3797 26.378 19.3827 26.5176C19.3857 26.6573 19.4171 26.7949 19.4749 26.922C19.5327 27.0492 19.6158 27.1633 19.719 27.2574C20.341 27.8809 21.1819 28.237 22.0625 28.25C22.883 28.25 23.6699 27.9241 24.2501 27.3439C24.8303 26.7637 25.1562 25.9768 25.1562 25.1562C25.1562 24.3357 24.8303 23.5488 24.2501 22.9686C23.6699 22.3884 22.883 22.0625 22.0625 22.0625Z" fill="white" fill-opacity="0.38"/>
</svg>
